<?xml version="1.0" encoding="UTF-8"?>
<svg fill="#5651e5" id="Layer_1" data-name="Layer 1" xmlns="http://www.w3.org/2000/svg" viewBox="0 0 321.73 170.84">
  <g>
    <path d="M24.64,59.62c5.69,0,6.49-3.13,6.49-5.93,0-2.24-.32-4.49-.64-6.73-.32-2.24-.64-4.41-.64-6.65,0-7.37,4.81-10.5,11.62-10.5h1.68v4.41h-1.44c-4.73,0-6.33,2.56-6.33,6.89,0,1.84,.24,3.77,.56,5.69,.32,2,.56,3.93,.56,6.09,.08,5.13-2.16,7.69-5.77,8.66v.16c3.61,.88,5.85,3.61,5.77,8.74,0,2.16-.24,4.17-.56,6.09-.32,2-.56,3.85-.56,5.77,0,4.49,1.84,6.97,6.33,6.97h1.44v4.41h-1.68c-6.65,0-11.62-2.88-11.62-10.98,0-2.16,.32-4.41,.64-6.57,.32-2.16,.64-4.33,.64-6.49,0-2.48-.8-5.93-6.49-5.93v-4.09Z"/>
    <path d="M50.44,61.23l37.18-19.15v5.53l-31.33,15.71v.16l31.33,15.71v5.53l-37.18-19.15v-4.33Z"/>
    <path d="M271.29,65.63l-37.18,19.07v-5.53l31.58-15.71v-.16l-31.58-15.71v-5.53l37.18,19.07v4.49Z"/>
    <path d="M297.09,63.71c-5.69,0-6.49,3.45-6.49,5.93,0,2.16,.32,4.33,.64,6.49,.32,2.16,.64,4.41,.64,6.57,0,8.09-5.05,10.98-11.62,10.98h-1.68v-4.41h1.36c4.49-.08,6.41-2.48,6.41-6.97,0-1.92-.32-3.77-.56-5.77-.32-1.92-.64-3.93-.64-6.09,0-5.13,2.24-7.85,5.77-8.74v-.16c-3.53-.96-5.77-3.53-5.77-8.66,0-2.16,.32-4.09,.64-6.09,.24-1.92,.56-3.85,.56-5.69,0-4.33-1.68-6.81-6.33-6.89h-1.44v-4.41h1.6c6.81,0,11.7,3.13,11.7,10.5,0,2.24-.32,4.41-.64,6.65-.32,2.24-.64,4.49-.64,6.73,0,2.8,.8,5.93,6.49,5.93v4.09Z"/>
  </g>
  <g>
    <path d="M83.79,123.49L131.31,0h11.58l-47.69,123.49h-11.41Z"/>
    <path d="M180.54,119.15L143.06,4.34h16.01l17.88,56.55c4.94,15.5,9.2,29.47,12.26,42.92h.34c3.24-13.29,8.01-27.76,13.12-42.75L222.1,4.34h15.84l-41.05,114.81h-16.35Z"/>
  </g>
  <g>
    <path d="M10.3,137.24h4.27v22.12c0,8.78-4.32,11.48-10.01,11.48-1.57,0-3.48-.34-4.56-.78l.64-3.48c.88,.34,2.16,.64,3.58,.64,3.83,0,6.08-1.72,6.08-8.19v-21.78Z"/>
    <path d="M41.4,163.83c0,2.45,.05,4.61,.2,6.48h-3.83l-.25-3.88h-.1c-1.13,1.91-3.63,4.42-7.85,4.42-3.73,0-8.19-2.06-8.19-10.4v-13.88h4.32v13.15c0,4.51,1.37,7.55,5.3,7.55,2.89,0,4.91-2.01,5.69-3.92,.25-.64,.39-1.42,.39-2.21v-14.57h4.32v17.27Z"/>
    <path d="M61.72,170.3l-.34-2.99h-.15c-1.32,1.86-3.88,3.53-7.26,3.53-4.81,0-7.26-3.38-7.26-6.82,0-5.74,5.1-8.88,14.28-8.83v-.49c0-1.96-.54-5.49-5.4-5.49-2.21,0-4.51,.69-6.18,1.77l-.98-2.85c1.96-1.28,4.81-2.11,7.8-2.11,7.26,0,9.03,4.95,9.03,9.71v8.88c0,2.06,.1,4.07,.39,5.69h-3.92Zm-.64-12.12c-4.71-.1-10.06,.74-10.06,5.35,0,2.8,1.86,4.12,4.07,4.12,3.09,0,5.05-1.96,5.74-3.97,.15-.44,.25-.93,.25-1.37v-4.12Z"/>
    <path d="M72.21,153.97c0-2.8-.05-5.2-.2-7.41h3.78l.15,4.66h.2c1.08-3.19,3.68-5.2,6.57-5.2,.49,0,.83,.05,1.23,.15v4.07c-.44-.1-.88-.15-1.47-.15-3.04,0-5.2,2.31-5.79,5.54-.1,.59-.2,1.28-.2,2.01v12.66h-4.27v-16.34Z"/>
    <path d="M90.17,159.22c.1,5.84,3.83,8.24,8.14,8.24,3.09,0,4.95-.54,6.57-1.23l.74,3.09c-1.52,.69-4.12,1.47-7.9,1.47-7.31,0-11.68-4.81-11.68-11.97s4.22-12.8,11.14-12.8c7.75,0,9.81,6.82,9.81,11.19,0,.88-.1,1.57-.15,2.01h-16.68Zm12.66-3.09c.05-2.75-1.13-7.02-5.98-7.02-4.37,0-6.28,4.02-6.62,7.02h12.61Z"/>
    <path d="M109.65,167.8l10.74-13.98c1.03-1.28,2.01-2.4,3.09-3.68v-.1h-12.85v-3.48h18.1l-.05,2.7-10.6,13.79c-.98,1.32-1.96,2.5-3.04,3.73v.1h13.88v3.43h-19.28v-2.5Z"/>
    <path d="M147.52,170.3l-8.39-33.06h4.51l3.92,16.73c.98,4.12,1.86,8.24,2.45,11.43h.1c.54-3.29,1.57-7.21,2.7-11.48l4.42-16.68h4.46l4.02,16.78c.93,3.92,1.81,7.85,2.31,11.33h.1c.69-3.63,1.62-7.31,2.65-11.43l4.37-16.68h4.37l-9.37,33.06h-4.46l-4.17-17.22c-1.03-4.22-1.72-7.46-2.16-10.79h-.1c-.59,3.29-1.32,6.52-2.55,10.79l-4.71,17.22h-4.46Z"/>
    <path d="M184.27,159.22c.1,5.84,3.83,8.24,8.14,8.24,3.09,0,4.96-.54,6.57-1.23l.74,3.09c-1.52,.69-4.12,1.47-7.9,1.47-7.31,0-11.68-4.81-11.68-11.97s4.22-12.8,11.14-12.8c7.75,0,9.81,6.82,9.81,11.19,0,.88-.1,1.57-.15,2.01h-16.68Zm12.66-3.09c.05-2.75-1.13-7.02-5.99-7.02-4.37,0-6.28,4.02-6.62,7.02h12.61Z"/>
    <path d="M206.24,170.3c.1-1.62,.2-4.02,.2-6.13v-28.7h4.27v14.91h.1c1.52-2.65,4.27-4.37,8.09-4.37,5.89,0,10.06,4.91,10.01,12.12,0,8.49-5.35,12.71-10.64,12.71-3.43,0-6.18-1.32-7.95-4.46h-.15l-.2,3.92h-3.73Zm4.46-9.52c0,.54,.1,1.08,.2,1.57,.83,2.99,3.34,5.05,6.48,5.05,4.51,0,7.21-3.68,7.21-9.12,0-4.76-2.45-8.83-7.06-8.83-2.94,0-5.69,2.01-6.57,5.3-.1,.49-.25,1.08-.25,1.77v4.27Z"/>
    <path d="M244.9,137.68c2.6-.39,5.69-.69,9.08-.69,6.13,0,10.5,1.42,13.39,4.12,2.94,2.7,4.66,6.52,4.66,11.87s-1.67,9.81-4.76,12.85c-3.09,3.09-8.19,4.76-14.62,4.76-3.04,0-5.59-.15-7.75-.39v-32.52Zm4.27,29.24c1.08,.2,2.65,.25,4.32,.25,9.12,0,14.08-5.1,14.08-14.03,.05-7.8-4.37-12.75-13.39-12.75-2.21,0-3.88,.2-5,.44v26.1Z"/>
    <path d="M280.03,159.22c.1,5.84,3.83,8.24,8.14,8.24,3.09,0,4.95-.54,6.57-1.23l.74,3.09c-1.52,.69-4.12,1.47-7.9,1.47-7.31,0-11.68-4.81-11.68-11.97s4.22-12.8,11.14-12.8c7.75,0,9.81,6.82,9.81,11.19,0,.88-.1,1.57-.15,2.01h-16.68Zm12.66-3.09c.05-2.75-1.13-7.02-5.99-7.02-4.37,0-6.28,4.02-6.62,7.02h12.61Z"/>
    <path d="M303.87,146.56l4.66,13.34c.79,2.16,1.42,4.12,1.91,6.08h.15c.54-1.96,1.23-3.92,2.01-6.08l4.61-13.34h4.51l-9.32,23.74h-4.12l-9.03-23.74h4.61Z"/>
  </g>
</svg>