<?xml version="1.0" encoding="UTF-8"?>
<svg fill="#5651e5" id="Layer_1" data-name="Layer 1" xmlns="http://www.w3.org/2000/svg" viewBox="0 0 321.73 170.84">
  <g>
    <path d="M24.64,59.62c5.69,0,6.49-3.13,6.49-5.93,0-2.24-.32-4.49-.64-6.73-.32-2.24-.64-4.41-.64-6.65,0-7.37,4.81-10.5,11.62-10.5h1.68v4.41h-1.44c-4.73,0-6.33,2.56-6.33,6.89,0,1.84,.24,3.77,.56,5.69,.32,2,.56,3.93,.56,6.09,.08,5.13-2.16,7.69-5.77,8.66v.16c3.61,.88,5.85,3.61,5.77,8.74,0,2.16-.24,4.17-.56,6.09-.32,2-.56,3.85-.56,5.77,0,4.49,1.84,6.97,6.33,6.97h1.44v4.41h-1.68c-6.65,0-11.62-2.88-11.62-10.98,0-2.16,.32-4.41,.64-6.57,.32-2.16,.64-4.33,.64-6.49,0-2.48-.8-5.93-6.49-5.93v-4.09Z"/>
    <path d="M50.44,61.23l37.18-19.15v5.53l-31.33,15.71v.16l31.33,15.71v5.53l-37.18-19.15v-4.33Z"/>
    <path d="M271.29,65.63l-37.18,19.07v-5.53l31.58-15.71v-.16l-31.58-15.71v-5.53l37.18,19.07v4.49Z"/>
    <path d="M297.09,63.71c-5.69,0-6.49,3.45-6.49,5.93,0,2.16,.32,4.33,.64,6.49,.32,2.16,.64,4.41,.64,6.57,0,8.09-5.05,10.98-11.62,10.98h-1.68v-4.41h1.36c4.49-.08,6.41-2.48,6.41-6.97,0-1.92-.32-3.77-.56-5.77-.32-1.92-.64-3.93-.64-6.09,0-5.13,2.24-7.85,5.77-8.74v-.16c-3.53-.96-5.77-3.53-5.77-8.66,0-2.16,.32-4.09,.64-6.09,.24-1.92,.56-3.85,.56-5.69,0-4.33-1.68-6.81-6.33-6.89h-1.44v-4.41h1.6c6.81,0,11.7,3.13,11.7,10.5,0,2.24-.32,4.41-.64,6.65-.32,2.24-.64,4.49-.64,6.73,0,2.8,.8,5.93,6.49,5.93v4.09Z"/>
  </g>
  <g>
    <path d="M83.79,123.49L131.31,0h11.58l-47.69,123.49h-11.41Z"/>
    <path d="M180.54,119.15L143.06,4.34h16.01l17.88,56.55c4.94,15.5,9.2,29.47,12.26,42.92h.34c3.24-13.29,8.01-27.76,13.12-42.75L222.1,4.34h15.84l-41.05,114.81h-16.35Z"/>
  </g>
</svg>